<?xml version="1.0" encoding="utf-8" standalone="no"?>
<!DOCTYPE svg PUBLIC "-//W3C//DTD SVG 1.1//EN"
  "http://www.w3.org/Graphics/SVG/1.1/DTD/svg11.dtd">
<svg height="345.6pt" version="1.1" viewBox="0 0 460.8 345.6" width="460.8pt" xmlns="http://www.w3.org/2000/svg" xmlns:xlink="http://www.w3.org/1999/xlink">
 <metadata>
  <rdf:RDF xmlns:cc="http://creativecommons.org/ns#" xmlns:dc="http://purl.org/dc/elements/1.1/" xmlns:rdf="http://www.w3.org/1999/02/22-rdf-syntax-ns#">
   <cc:Work>
    <dc:type rdf:resource="http://purl.org/dc/dcmitype/StillImage"/>
    <dc:date>2023-04-20T20:17:38.215699</dc:date>
    <dc:format>image/svg+xml</dc:format>
    <dc:creator>
     <cc:Agent>
      <dc:title>Matplotlib v3.4.3, https://matplotlib.org/</dc:title>
     </cc:Agent>
    </dc:creator>
   </cc:Work>
  </rdf:RDF>
 </metadata>
 <defs>
  <style type="text/css">*{stroke-linecap:butt;stroke-linejoin:round;}</style>
 </defs>
 <g id="figure_1">
  <g id="patch_1">
   <path d="M 0 345.6 
L 460.8 345.6 
L 460.8 0 
L 0 0 
z
" style="fill:#ffffff;"/>
  </g>
  <g id="axes_1">
   <g id="patch_2">
    <path d="M 57.6 307.584 
L 414.72 307.584 
L 414.72 41.472 
L 57.6 41.472 
z
" style="fill:#ffffff;"/>
   </g>
   <g id="matplotlib.axis_1">
    <g id="xtick_1">
     <g id="line2d_1">
      <defs>
       <path d="M 0 0 
L 0 3.5 
" id="m7bcbcaeca8" style="stroke:#000000;stroke-width:0.8;"/>
      </defs>
      <g>
       <use style="stroke:#000000;stroke-width:0.8;" x="73.068834" xlink:href="#m7bcbcaeca8" y="307.584"/>
      </g>
     </g>
     <g id="text_1">
      <!-- 0 -->
      <g transform="translate(69.887584 322.182437)scale(0.1 -0.1)">
       <defs>
        <path d="M 2034 4250 
Q 1547 4250 1301 3770 
Q 1056 3291 1056 2328 
Q 1056 1369 1301 889 
Q 1547 409 2034 409 
Q 2525 409 2770 889 
Q 3016 1369 3016 2328 
Q 3016 3291 2770 3770 
Q 2525 4250 2034 4250 
z
M 2034 4750 
Q 2819 4750 3233 4129 
Q 3647 3509 3647 2328 
Q 3647 1150 3233 529 
Q 2819 -91 2034 -91 
Q 1250 -91 836 529 
Q 422 1150 422 2328 
Q 422 3509 836 4129 
Q 1250 4750 2034 4750 
z
" id="DejaVuSans-30" transform="scale(0.015625)"/>
       </defs>
       <use xlink:href="#DejaVuSans-30"/>
      </g>
     </g>
    </g>
    <g id="xtick_2">
     <g id="line2d_2">
      <g>
       <use style="stroke:#000000;stroke-width:0.8;" x="149.458139" xlink:href="#m7bcbcaeca8" y="307.584"/>
      </g>
     </g>
     <g id="text_2">
      <!-- 100 -->
      <g transform="translate(139.914389 322.182437)scale(0.1 -0.1)">
       <defs>
        <path d="M 794 531 
L 1825 531 
L 1825 4091 
L 703 3866 
L 703 4441 
L 1819 4666 
L 2450 4666 
L 2450 531 
L 3481 531 
L 3481 0 
L 794 0 
L 794 531 
z
" id="DejaVuSans-31" transform="scale(0.015625)"/>
       </defs>
       <use xlink:href="#DejaVuSans-31"/>
       <use x="63.623047" xlink:href="#DejaVuSans-30"/>
       <use x="127.246094" xlink:href="#DejaVuSans-30"/>
      </g>
     </g>
    </g>
    <g id="xtick_3">
     <g id="line2d_3">
      <g>
       <use style="stroke:#000000;stroke-width:0.8;" x="225.847444" xlink:href="#m7bcbcaeca8" y="307.584"/>
      </g>
     </g>
     <g id="text_3">
      <!-- 200 -->
      <g transform="translate(216.303694 322.182437)scale(0.1 -0.1)">
       <defs>
        <path d="M 1228 531 
L 3431 531 
L 3431 0 
L 469 0 
L 469 531 
Q 828 903 1448 1529 
Q 2069 2156 2228 2338 
Q 2531 2678 2651 2914 
Q 2772 3150 2772 3378 
Q 2772 3750 2511 3984 
Q 2250 4219 1831 4219 
Q 1534 4219 1204 4116 
Q 875 4013 500 3803 
L 500 4441 
Q 881 4594 1212 4672 
Q 1544 4750 1819 4750 
Q 2544 4750 2975 4387 
Q 3406 4025 3406 3419 
Q 3406 3131 3298 2873 
Q 3191 2616 2906 2266 
Q 2828 2175 2409 1742 
Q 1991 1309 1228 531 
z
" id="DejaVuSans-32" transform="scale(0.015625)"/>
       </defs>
       <use xlink:href="#DejaVuSans-32"/>
       <use x="63.623047" xlink:href="#DejaVuSans-30"/>
       <use x="127.246094" xlink:href="#DejaVuSans-30"/>
      </g>
     </g>
    </g>
    <g id="xtick_4">
     <g id="line2d_4">
      <g>
       <use style="stroke:#000000;stroke-width:0.8;" x="302.236749" xlink:href="#m7bcbcaeca8" y="307.584"/>
      </g>
     </g>
     <g id="text_4">
      <!-- 300 -->
      <g transform="translate(292.692999 322.182437)scale(0.1 -0.1)">
       <defs>
        <path d="M 2597 2516 
Q 3050 2419 3304 2112 
Q 3559 1806 3559 1356 
Q 3559 666 3084 287 
Q 2609 -91 1734 -91 
Q 1441 -91 1130 -33 
Q 819 25 488 141 
L 488 750 
Q 750 597 1062 519 
Q 1375 441 1716 441 
Q 2309 441 2620 675 
Q 2931 909 2931 1356 
Q 2931 1769 2642 2001 
Q 2353 2234 1838 2234 
L 1294 2234 
L 1294 2753 
L 1863 2753 
Q 2328 2753 2575 2939 
Q 2822 3125 2822 3475 
Q 2822 3834 2567 4026 
Q 2313 4219 1838 4219 
Q 1578 4219 1281 4162 
Q 984 4106 628 3988 
L 628 4550 
Q 988 4650 1302 4700 
Q 1616 4750 1894 4750 
Q 2613 4750 3031 4423 
Q 3450 4097 3450 3541 
Q 3450 3153 3228 2886 
Q 3006 2619 2597 2516 
z
" id="DejaVuSans-33" transform="scale(0.015625)"/>
       </defs>
       <use xlink:href="#DejaVuSans-33"/>
       <use x="63.623047" xlink:href="#DejaVuSans-30"/>
       <use x="127.246094" xlink:href="#DejaVuSans-30"/>
      </g>
     </g>
    </g>
    <g id="xtick_5">
     <g id="line2d_5">
      <g>
       <use style="stroke:#000000;stroke-width:0.8;" x="378.626053" xlink:href="#m7bcbcaeca8" y="307.584"/>
      </g>
     </g>
     <g id="text_5">
      <!-- 400 -->
      <g transform="translate(369.082303 322.182437)scale(0.1 -0.1)">
       <defs>
        <path d="M 2419 4116 
L 825 1625 
L 2419 1625 
L 2419 4116 
z
M 2253 4666 
L 3047 4666 
L 3047 1625 
L 3713 1625 
L 3713 1100 
L 3047 1100 
L 3047 0 
L 2419 0 
L 2419 1100 
L 313 1100 
L 313 1709 
L 2253 4666 
z
" id="DejaVuSans-34" transform="scale(0.015625)"/>
       </defs>
       <use xlink:href="#DejaVuSans-34"/>
       <use x="63.623047" xlink:href="#DejaVuSans-30"/>
       <use x="127.246094" xlink:href="#DejaVuSans-30"/>
      </g>
     </g>
    </g>
    <g id="text_6">
     <!-- Epoch -->
     <g transform="translate(220.849063 335.860562)scale(0.1 -0.1)">
      <defs>
       <path d="M 628 4666 
L 3578 4666 
L 3578 4134 
L 1259 4134 
L 1259 2753 
L 3481 2753 
L 3481 2222 
L 1259 2222 
L 1259 531 
L 3634 531 
L 3634 0 
L 628 0 
L 628 4666 
z
" id="DejaVuSans-45" transform="scale(0.015625)"/>
       <path d="M 1159 525 
L 1159 -1331 
L 581 -1331 
L 581 3500 
L 1159 3500 
L 1159 2969 
Q 1341 3281 1617 3432 
Q 1894 3584 2278 3584 
Q 2916 3584 3314 3078 
Q 3713 2572 3713 1747 
Q 3713 922 3314 415 
Q 2916 -91 2278 -91 
Q 1894 -91 1617 61 
Q 1341 213 1159 525 
z
M 3116 1747 
Q 3116 2381 2855 2742 
Q 2594 3103 2138 3103 
Q 1681 3103 1420 2742 
Q 1159 2381 1159 1747 
Q 1159 1113 1420 752 
Q 1681 391 2138 391 
Q 2594 391 2855 752 
Q 3116 1113 3116 1747 
z
" id="DejaVuSans-70" transform="scale(0.015625)"/>
       <path d="M 1959 3097 
Q 1497 3097 1228 2736 
Q 959 2375 959 1747 
Q 959 1119 1226 758 
Q 1494 397 1959 397 
Q 2419 397 2687 759 
Q 2956 1122 2956 1747 
Q 2956 2369 2687 2733 
Q 2419 3097 1959 3097 
z
M 1959 3584 
Q 2709 3584 3137 3096 
Q 3566 2609 3566 1747 
Q 3566 888 3137 398 
Q 2709 -91 1959 -91 
Q 1206 -91 779 398 
Q 353 888 353 1747 
Q 353 2609 779 3096 
Q 1206 3584 1959 3584 
z
" id="DejaVuSans-6f" transform="scale(0.015625)"/>
       <path d="M 3122 3366 
L 3122 2828 
Q 2878 2963 2633 3030 
Q 2388 3097 2138 3097 
Q 1578 3097 1268 2742 
Q 959 2388 959 1747 
Q 959 1106 1268 751 
Q 1578 397 2138 397 
Q 2388 397 2633 464 
Q 2878 531 3122 666 
L 3122 134 
Q 2881 22 2623 -34 
Q 2366 -91 2075 -91 
Q 1284 -91 818 406 
Q 353 903 353 1747 
Q 353 2603 823 3093 
Q 1294 3584 2113 3584 
Q 2378 3584 2631 3529 
Q 2884 3475 3122 3366 
z
" id="DejaVuSans-63" transform="scale(0.015625)"/>
       <path d="M 3513 2113 
L 3513 0 
L 2938 0 
L 2938 2094 
Q 2938 2591 2744 2837 
Q 2550 3084 2163 3084 
Q 1697 3084 1428 2787 
Q 1159 2491 1159 1978 
L 1159 0 
L 581 0 
L 581 4863 
L 1159 4863 
L 1159 2956 
Q 1366 3272 1645 3428 
Q 1925 3584 2291 3584 
Q 2894 3584 3203 3211 
Q 3513 2838 3513 2113 
z
" id="DejaVuSans-68" transform="scale(0.015625)"/>
      </defs>
      <use xlink:href="#DejaVuSans-45"/>
      <use x="63.183594" xlink:href="#DejaVuSans-70"/>
      <use x="126.660156" xlink:href="#DejaVuSans-6f"/>
      <use x="187.841797" xlink:href="#DejaVuSans-63"/>
      <use x="242.822266" xlink:href="#DejaVuSans-68"/>
     </g>
    </g>
   </g>
   <g id="matplotlib.axis_2">
    <g id="ytick_1">
     <g id="line2d_6">
      <defs>
       <path d="M 0 0 
L -3.5 0 
" id="m3162e9ac76" style="stroke:#000000;stroke-width:0.8;"/>
      </defs>
      <g>
       <use style="stroke:#000000;stroke-width:0.8;" x="57.6" xlink:href="#m3162e9ac76" y="301.495449"/>
      </g>
     </g>
     <g id="text_7">
      <!-- $\mathdefault{10^{-1}}$ -->
      <g transform="translate(27.1 305.294668)scale(0.1 -0.1)">
       <defs>
        <path d="M 678 2272 
L 4684 2272 
L 4684 1741 
L 678 1741 
L 678 2272 
z
" id="DejaVuSans-2212" transform="scale(0.015625)"/>
       </defs>
       <use transform="translate(0 0.684375)" xlink:href="#DejaVuSans-31"/>
       <use transform="translate(63.623047 0.684375)" xlink:href="#DejaVuSans-30"/>
       <use transform="translate(128.203125 38.965625)scale(0.7)" xlink:href="#DejaVuSans-2212"/>
       <use transform="translate(186.855469 38.965625)scale(0.7)" xlink:href="#DejaVuSans-31"/>
      </g>
     </g>
    </g>
    <g id="ytick_2">
     <g id="line2d_7">
      <g>
       <use style="stroke:#000000;stroke-width:0.8;" x="57.6" xlink:href="#m3162e9ac76" y="256.891383"/>
      </g>
     </g>
     <g id="text_8">
      <!-- $\mathdefault{10^{0}}$ -->
      <g transform="translate(33 260.690602)scale(0.1 -0.1)">
       <use transform="translate(0 0.765625)" xlink:href="#DejaVuSans-31"/>
       <use transform="translate(63.623047 0.765625)" xlink:href="#DejaVuSans-30"/>
       <use transform="translate(128.203125 39.046875)scale(0.7)" xlink:href="#DejaVuSans-30"/>
      </g>
     </g>
    </g>
    <g id="ytick_3">
     <g id="line2d_8">
      <g>
       <use style="stroke:#000000;stroke-width:0.8;" x="57.6" xlink:href="#m3162e9ac76" y="212.287318"/>
      </g>
     </g>
     <g id="text_9">
      <!-- $\mathdefault{10^{1}}$ -->
      <g transform="translate(33 216.086537)scale(0.1 -0.1)">
       <use transform="translate(0 0.684375)" xlink:href="#DejaVuSans-31"/>
       <use transform="translate(63.623047 0.684375)" xlink:href="#DejaVuSans-30"/>
       <use transform="translate(128.203125 38.965625)scale(0.7)" xlink:href="#DejaVuSans-31"/>
      </g>
     </g>
    </g>
    <g id="ytick_4">
     <g id="line2d_9">
      <g>
       <use style="stroke:#000000;stroke-width:0.8;" x="57.6" xlink:href="#m3162e9ac76" y="167.683252"/>
      </g>
     </g>
     <g id="text_10">
      <!-- $\mathdefault{10^{2}}$ -->
      <g transform="translate(33 171.482471)scale(0.1 -0.1)">
       <use transform="translate(0 0.765625)" xlink:href="#DejaVuSans-31"/>
       <use transform="translate(63.623047 0.765625)" xlink:href="#DejaVuSans-30"/>
       <use transform="translate(128.203125 39.046875)scale(0.7)" xlink:href="#DejaVuSans-32"/>
      </g>
     </g>
    </g>
    <g id="ytick_5">
     <g id="line2d_10">
      <g>
       <use style="stroke:#000000;stroke-width:0.8;" x="57.6" xlink:href="#m3162e9ac76" y="123.079187"/>
      </g>
     </g>
     <g id="text_11">
      <!-- $\mathdefault{10^{3}}$ -->
      <g transform="translate(33 126.878406)scale(0.1 -0.1)">
       <use transform="translate(0 0.765625)" xlink:href="#DejaVuSans-31"/>
       <use transform="translate(63.623047 0.765625)" xlink:href="#DejaVuSans-30"/>
       <use transform="translate(128.203125 39.046875)scale(0.7)" xlink:href="#DejaVuSans-33"/>
      </g>
     </g>
    </g>
    <g id="ytick_6">
     <g id="line2d_11">
      <g>
       <use style="stroke:#000000;stroke-width:0.8;" x="57.6" xlink:href="#m3162e9ac76" y="78.475121"/>
      </g>
     </g>
     <g id="text_12">
      <!-- $\mathdefault{10^{4}}$ -->
      <g transform="translate(33 82.27434)scale(0.1 -0.1)">
       <use transform="translate(0 0.684375)" xlink:href="#DejaVuSans-31"/>
       <use transform="translate(63.623047 0.684375)" xlink:href="#DejaVuSans-30"/>
       <use transform="translate(128.203125 38.965625)scale(0.7)" xlink:href="#DejaVuSans-34"/>
      </g>
     </g>
    </g>
    <g id="ytick_7">
     <g id="line2d_12">
      <defs>
       <path d="M 0 0 
L -2 0 
" id="maab8da843b" style="stroke:#000000;stroke-width:0.6;"/>
      </defs>
      <g>
       <use style="stroke:#000000;stroke-width:0.6;" x="57.6" xlink:href="#maab8da843b" y="305.81803"/>
      </g>
     </g>
    </g>
    <g id="ytick_8">
     <g id="line2d_13">
      <g>
       <use style="stroke:#000000;stroke-width:0.6;" x="57.6" xlink:href="#maab8da843b" y="303.536419"/>
      </g>
     </g>
    </g>
    <g id="ytick_9">
     <g id="line2d_14">
      <g>
       <use style="stroke:#000000;stroke-width:0.6;" x="57.6" xlink:href="#maab8da843b" y="288.068287"/>
      </g>
     </g>
    </g>
    <g id="ytick_10">
     <g id="line2d_15">
      <g>
       <use style="stroke:#000000;stroke-width:0.6;" x="57.6" xlink:href="#maab8da843b" y="280.213901"/>
      </g>
     </g>
    </g>
    <g id="ytick_11">
     <g id="line2d_16">
      <g>
       <use style="stroke:#000000;stroke-width:0.6;" x="57.6" xlink:href="#maab8da843b" y="274.641126"/>
      </g>
     </g>
    </g>
    <g id="ytick_12">
     <g id="line2d_17">
      <g>
       <use style="stroke:#000000;stroke-width:0.6;" x="57.6" xlink:href="#maab8da843b" y="270.318545"/>
      </g>
     </g>
    </g>
    <g id="ytick_13">
     <g id="line2d_18">
      <g>
       <use style="stroke:#000000;stroke-width:0.6;" x="57.6" xlink:href="#maab8da843b" y="266.78674"/>
      </g>
     </g>
    </g>
    <g id="ytick_14">
     <g id="line2d_19">
      <g>
       <use style="stroke:#000000;stroke-width:0.6;" x="57.6" xlink:href="#maab8da843b" y="263.800641"/>
      </g>
     </g>
    </g>
    <g id="ytick_15">
     <g id="line2d_20">
      <g>
       <use style="stroke:#000000;stroke-width:0.6;" x="57.6" xlink:href="#maab8da843b" y="261.213964"/>
      </g>
     </g>
    </g>
    <g id="ytick_16">
     <g id="line2d_21">
      <g>
       <use style="stroke:#000000;stroke-width:0.6;" x="57.6" xlink:href="#maab8da843b" y="258.932354"/>
      </g>
     </g>
    </g>
    <g id="ytick_17">
     <g id="line2d_22">
      <g>
       <use style="stroke:#000000;stroke-width:0.6;" x="57.6" xlink:href="#maab8da843b" y="243.464222"/>
      </g>
     </g>
    </g>
    <g id="ytick_18">
     <g id="line2d_23">
      <g>
       <use style="stroke:#000000;stroke-width:0.6;" x="57.6" xlink:href="#maab8da843b" y="235.609836"/>
      </g>
     </g>
    </g>
    <g id="ytick_19">
     <g id="line2d_24">
      <g>
       <use style="stroke:#000000;stroke-width:0.6;" x="57.6" xlink:href="#maab8da843b" y="230.03706"/>
      </g>
     </g>
    </g>
    <g id="ytick_20">
     <g id="line2d_25">
      <g>
       <use style="stroke:#000000;stroke-width:0.6;" x="57.6" xlink:href="#maab8da843b" y="225.71448"/>
      </g>
     </g>
    </g>
    <g id="ytick_21">
     <g id="line2d_26">
      <g>
       <use style="stroke:#000000;stroke-width:0.6;" x="57.6" xlink:href="#maab8da843b" y="222.182674"/>
      </g>
     </g>
    </g>
    <g id="ytick_22">
     <g id="line2d_27">
      <g>
       <use style="stroke:#000000;stroke-width:0.6;" x="57.6" xlink:href="#maab8da843b" y="219.196575"/>
      </g>
     </g>
    </g>
    <g id="ytick_23">
     <g id="line2d_28">
      <g>
       <use style="stroke:#000000;stroke-width:0.6;" x="57.6" xlink:href="#maab8da843b" y="216.609898"/>
      </g>
     </g>
    </g>
    <g id="ytick_24">
     <g id="line2d_29">
      <g>
       <use style="stroke:#000000;stroke-width:0.6;" x="57.6" xlink:href="#maab8da843b" y="214.328288"/>
      </g>
     </g>
    </g>
    <g id="ytick_25">
     <g id="line2d_30">
      <g>
       <use style="stroke:#000000;stroke-width:0.6;" x="57.6" xlink:href="#maab8da843b" y="198.860156"/>
      </g>
     </g>
    </g>
    <g id="ytick_26">
     <g id="line2d_31">
      <g>
       <use style="stroke:#000000;stroke-width:0.6;" x="57.6" xlink:href="#maab8da843b" y="191.00577"/>
      </g>
     </g>
    </g>
    <g id="ytick_27">
     <g id="line2d_32">
      <g>
       <use style="stroke:#000000;stroke-width:0.6;" x="57.6" xlink:href="#maab8da843b" y="185.432995"/>
      </g>
     </g>
    </g>
    <g id="ytick_28">
     <g id="line2d_33">
      <g>
       <use style="stroke:#000000;stroke-width:0.6;" x="57.6" xlink:href="#maab8da843b" y="181.110414"/>
      </g>
     </g>
    </g>
    <g id="ytick_29">
     <g id="line2d_34">
      <g>
       <use style="stroke:#000000;stroke-width:0.6;" x="57.6" xlink:href="#maab8da843b" y="177.578609"/>
      </g>
     </g>
    </g>
    <g id="ytick_30">
     <g id="line2d_35">
      <g>
       <use style="stroke:#000000;stroke-width:0.6;" x="57.6" xlink:href="#maab8da843b" y="174.59251"/>
      </g>
     </g>
    </g>
    <g id="ytick_31">
     <g id="line2d_36">
      <g>
       <use style="stroke:#000000;stroke-width:0.6;" x="57.6" xlink:href="#maab8da843b" y="172.005833"/>
      </g>
     </g>
    </g>
    <g id="ytick_32">
     <g id="line2d_37">
      <g>
       <use style="stroke:#000000;stroke-width:0.6;" x="57.6" xlink:href="#maab8da843b" y="169.724223"/>
      </g>
     </g>
    </g>
    <g id="ytick_33">
     <g id="line2d_38">
      <g>
       <use style="stroke:#000000;stroke-width:0.6;" x="57.6" xlink:href="#maab8da843b" y="154.256091"/>
      </g>
     </g>
    </g>
    <g id="ytick_34">
     <g id="line2d_39">
      <g>
       <use style="stroke:#000000;stroke-width:0.6;" x="57.6" xlink:href="#maab8da843b" y="146.401705"/>
      </g>
     </g>
    </g>
    <g id="ytick_35">
     <g id="line2d_40">
      <g>
       <use style="stroke:#000000;stroke-width:0.6;" x="57.6" xlink:href="#maab8da843b" y="140.828929"/>
      </g>
     </g>
    </g>
    <g id="ytick_36">
     <g id="line2d_41">
      <g>
       <use style="stroke:#000000;stroke-width:0.6;" x="57.6" xlink:href="#maab8da843b" y="136.506349"/>
      </g>
     </g>
    </g>
    <g id="ytick_37">
     <g id="line2d_42">
      <g>
       <use style="stroke:#000000;stroke-width:0.6;" x="57.6" xlink:href="#maab8da843b" y="132.974543"/>
      </g>
     </g>
    </g>
    <g id="ytick_38">
     <g id="line2d_43">
      <g>
       <use style="stroke:#000000;stroke-width:0.6;" x="57.6" xlink:href="#maab8da843b" y="129.988444"/>
      </g>
     </g>
    </g>
    <g id="ytick_39">
     <g id="line2d_44">
      <g>
       <use style="stroke:#000000;stroke-width:0.6;" x="57.6" xlink:href="#maab8da843b" y="127.401767"/>
      </g>
     </g>
    </g>
    <g id="ytick_40">
     <g id="line2d_45">
      <g>
       <use style="stroke:#000000;stroke-width:0.6;" x="57.6" xlink:href="#maab8da843b" y="125.120157"/>
      </g>
     </g>
    </g>
    <g id="ytick_41">
     <g id="line2d_46">
      <g>
       <use style="stroke:#000000;stroke-width:0.6;" x="57.6" xlink:href="#maab8da843b" y="109.652025"/>
      </g>
     </g>
    </g>
    <g id="ytick_42">
     <g id="line2d_47">
      <g>
       <use style="stroke:#000000;stroke-width:0.6;" x="57.6" xlink:href="#maab8da843b" y="101.797639"/>
      </g>
     </g>
    </g>
    <g id="ytick_43">
     <g id="line2d_48">
      <g>
       <use style="stroke:#000000;stroke-width:0.6;" x="57.6" xlink:href="#maab8da843b" y="96.224864"/>
      </g>
     </g>
    </g>
    <g id="ytick_44">
     <g id="line2d_49">
      <g>
       <use style="stroke:#000000;stroke-width:0.6;" x="57.6" xlink:href="#maab8da843b" y="91.902283"/>
      </g>
     </g>
    </g>
    <g id="ytick_45">
     <g id="line2d_50">
      <g>
       <use style="stroke:#000000;stroke-width:0.6;" x="57.6" xlink:href="#maab8da843b" y="88.370478"/>
      </g>
     </g>
    </g>
    <g id="ytick_46">
     <g id="line2d_51">
      <g>
       <use style="stroke:#000000;stroke-width:0.6;" x="57.6" xlink:href="#maab8da843b" y="85.384379"/>
      </g>
     </g>
    </g>
    <g id="ytick_47">
     <g id="line2d_52">
      <g>
       <use style="stroke:#000000;stroke-width:0.6;" x="57.6" xlink:href="#maab8da843b" y="82.797702"/>
      </g>
     </g>
    </g>
    <g id="ytick_48">
     <g id="line2d_53">
      <g>
       <use style="stroke:#000000;stroke-width:0.6;" x="57.6" xlink:href="#maab8da843b" y="80.516091"/>
      </g>
     </g>
    </g>
    <g id="ytick_49">
     <g id="line2d_54">
      <g>
       <use style="stroke:#000000;stroke-width:0.6;" x="57.6" xlink:href="#maab8da843b" y="65.04796"/>
      </g>
     </g>
    </g>
    <g id="ytick_50">
     <g id="line2d_55">
      <g>
       <use style="stroke:#000000;stroke-width:0.6;" x="57.6" xlink:href="#maab8da843b" y="57.193574"/>
      </g>
     </g>
    </g>
    <g id="ytick_51">
     <g id="line2d_56">
      <g>
       <use style="stroke:#000000;stroke-width:0.6;" x="57.6" xlink:href="#maab8da843b" y="51.620798"/>
      </g>
     </g>
    </g>
    <g id="ytick_52">
     <g id="line2d_57">
      <g>
       <use style="stroke:#000000;stroke-width:0.6;" x="57.6" xlink:href="#maab8da843b" y="47.298217"/>
      </g>
     </g>
    </g>
    <g id="ytick_53">
     <g id="line2d_58">
      <g>
       <use style="stroke:#000000;stroke-width:0.6;" x="57.6" xlink:href="#maab8da843b" y="43.766412"/>
      </g>
     </g>
    </g>
    <g id="text_13">
     <!-- MSE loss -->
     <g transform="translate(21.020312 196.422531)rotate(-90)scale(0.1 -0.1)">
      <defs>
       <path d="M 628 4666 
L 1569 4666 
L 2759 1491 
L 3956 4666 
L 4897 4666 
L 4897 0 
L 4281 0 
L 4281 4097 
L 3078 897 
L 2444 897 
L 1241 4097 
L 1241 0 
L 628 0 
L 628 4666 
z
" id="DejaVuSans-4d" transform="scale(0.015625)"/>
       <path d="M 3425 4513 
L 3425 3897 
Q 3066 4069 2747 4153 
Q 2428 4238 2131 4238 
Q 1616 4238 1336 4038 
Q 1056 3838 1056 3469 
Q 1056 3159 1242 3001 
Q 1428 2844 1947 2747 
L 2328 2669 
Q 3034 2534 3370 2195 
Q 3706 1856 3706 1288 
Q 3706 609 3251 259 
Q 2797 -91 1919 -91 
Q 1588 -91 1214 -16 
Q 841 59 441 206 
L 441 856 
Q 825 641 1194 531 
Q 1563 422 1919 422 
Q 2459 422 2753 634 
Q 3047 847 3047 1241 
Q 3047 1584 2836 1778 
Q 2625 1972 2144 2069 
L 1759 2144 
Q 1053 2284 737 2584 
Q 422 2884 422 3419 
Q 422 4038 858 4394 
Q 1294 4750 2059 4750 
Q 2388 4750 2728 4690 
Q 3069 4631 3425 4513 
z
" id="DejaVuSans-53" transform="scale(0.015625)"/>
       <path id="DejaVuSans-20" transform="scale(0.015625)"/>
       <path d="M 603 4863 
L 1178 4863 
L 1178 0 
L 603 0 
L 603 4863 
z
" id="DejaVuSans-6c" transform="scale(0.015625)"/>
       <path d="M 2834 3397 
L 2834 2853 
Q 2591 2978 2328 3040 
Q 2066 3103 1784 3103 
Q 1356 3103 1142 2972 
Q 928 2841 928 2578 
Q 928 2378 1081 2264 
Q 1234 2150 1697 2047 
L 1894 2003 
Q 2506 1872 2764 1633 
Q 3022 1394 3022 966 
Q 3022 478 2636 193 
Q 2250 -91 1575 -91 
Q 1294 -91 989 -36 
Q 684 19 347 128 
L 347 722 
Q 666 556 975 473 
Q 1284 391 1588 391 
Q 1994 391 2212 530 
Q 2431 669 2431 922 
Q 2431 1156 2273 1281 
Q 2116 1406 1581 1522 
L 1381 1569 
Q 847 1681 609 1914 
Q 372 2147 372 2553 
Q 372 3047 722 3315 
Q 1072 3584 1716 3584 
Q 2034 3584 2315 3537 
Q 2597 3491 2834 3397 
z
" id="DejaVuSans-73" transform="scale(0.015625)"/>
      </defs>
      <use xlink:href="#DejaVuSans-4d"/>
      <use x="86.279297" xlink:href="#DejaVuSans-53"/>
      <use x="149.755859" xlink:href="#DejaVuSans-45"/>
      <use x="212.939453" xlink:href="#DejaVuSans-20"/>
      <use x="244.726562" xlink:href="#DejaVuSans-6c"/>
      <use x="272.509766" xlink:href="#DejaVuSans-6f"/>
      <use x="333.691406" xlink:href="#DejaVuSans-73"/>
      <use x="385.791016" xlink:href="#DejaVuSans-73"/>
     </g>
    </g>
   </g>
   <g id="line2d_59">
    <path clip-path="url(#p1b40a17c2a)" d="M 73.832727 53.568 
L 74.59662 282.117631 
L 75.360513 283.654559 
L 76.124406 283.903591 
L 76.888299 285.345575 
L 77.652193 285.477449 
L 78.416086 286.720882 
L 79.179979 287.387227 
L 79.943872 286.749257 
L 81.471658 287.887828 
L 82.235551 287.879863 
L 82.999444 288.443379 
L 84.52723 288.441703 
L 85.291123 288.893633 
L 86.055016 289.720538 
L 86.818909 289.291777 
L 87.582802 288.078286 
L 88.346695 289.510841 
L 89.110588 289.239964 
L 89.874481 289.367176 
L 91.402267 289.338443 
L 92.16616 290.282613 
L 92.930053 290.417564 
L 93.693947 290.061302 
L 94.45784 290.496215 
L 95.221733 290.738019 
L 95.985626 290.367938 
L 96.749519 290.242343 
L 98.277305 290.409762 
L 99.805091 290.143797 
L 100.568984 290.509242 
L 101.332877 290.337104 
L 102.09677 290.708154 
L 103.624556 290.826394 
L 104.388449 291.51662 
L 105.152342 290.998183 
L 105.916235 290.688625 
L 107.444021 290.916282 
L 108.207914 290.663253 
L 108.971807 291.431934 
L 109.735701 290.778883 
L 110.499594 291.437325 
L 111.263487 292.436002 
L 112.02738 291.387385 
L 112.791273 291.105406 
L 113.555166 291.379328 
L 114.319059 291.010527 
L 115.082952 291.30158 
L 115.846845 291.716387 
L 116.610738 291.652506 
L 117.374631 290.536237 
L 118.138524 291.554015 
L 118.902417 291.385358 
L 119.66631 292.448808 
L 120.430203 292.346154 
L 121.194096 292.829622 
L 121.957989 292.459225 
L 122.721882 292.616194 
L 123.485775 292.220491 
L 125.013561 292.819017 
L 125.777455 292.597891 
L 127.305241 292.955199 
L 128.833027 292.467486 
L 129.59692 292.664491 
L 130.360813 292.567852 
L 131.124706 292.847606 
L 131.888599 292.3527 
L 132.652492 292.947855 
L 133.416385 292.294411 
L 134.180278 292.764863 
L 134.944171 292.512313 
L 136.471957 293.408152 
L 137.23585 292.359916 
L 137.999743 293.111491 
L 138.763636 292.624628 
L 139.527529 291.947956 
L 141.055316 292.976351 
L 141.819209 292.571274 
L 142.583102 292.966182 
L 143.346995 292.619098 
L 144.110888 292.584451 
L 144.874781 293.021596 
L 146.402567 293.249718 
L 147.16646 292.801975 
L 147.930353 293.041358 
L 148.694246 293.047465 
L 149.458139 292.812267 
L 150.222032 292.972478 
L 150.985925 293.012779 
L 151.749818 293.249971 
L 152.513711 293.053457 
L 153.277604 292.231026 
L 154.041497 292.284652 
L 154.80539 292.892863 
L 155.569283 292.534267 
L 156.333176 292.842595 
L 157.09707 292.599119 
L 158.624856 293.052349 
L 159.388749 293.460067 
L 160.152642 292.585561 
L 160.916535 293.31581 
L 161.680428 292.256369 
L 162.444321 292.708211 
L 163.208214 293.524915 
L 164.736 292.827304 
L 165.499893 292.573051 
L 166.263786 292.764864 
L 167.027679 292.82644 
L 167.791572 292.115784 
L 168.555465 292.192104 
L 169.319358 292.835282 
L 170.083251 292.21135 
L 170.847144 292.788575 
L 171.611037 292.594678 
L 172.37493 292.74289 
L 173.138824 293.076008 
L 173.902717 292.853919 
L 174.66661 292.515915 
L 175.430503 293.055925 
L 176.194396 292.544982 
L 176.958289 292.622394 
L 177.722182 292.497221 
L 178.486075 292.791149 
L 180.013861 292.521998 
L 180.777754 293.019842 
L 181.541647 292.810633 
L 182.30554 292.728586 
L 183.833326 292.031246 
L 184.597219 292.588078 
L 187.652791 292.121428 
L 189.944471 293.42095 
L 190.708364 292.55977 
L 192.23615 292.689387 
L 193.000043 291.889255 
L 193.763936 292.780906 
L 194.527829 292.639242 
L 195.291722 292.952909 
L 196.819508 292.857355 
L 197.583401 292.148395 
L 198.347294 292.771231 
L 199.111187 292.642754 
L 199.87508 292.971407 
L 201.402866 292.713057 
L 202.166759 293.333291 
L 202.930652 292.760555 
L 203.694545 292.741863 
L 204.458439 292.235039 
L 205.222332 292.851637 
L 205.986225 292.524525 
L 206.750118 293.071873 
L 209.041797 292.797904 
L 209.80569 292.39364 
L 210.569583 293.308293 
L 211.333476 292.139057 
L 212.097369 292.70306 
L 212.861262 292.954509 
L 216.680727 292.844566 
L 217.44462 292.568723 
L 218.208513 293.113654 
L 218.972406 292.848977 
L 219.736299 292.806935 
L 220.500193 292.983849 
L 221.264086 292.31291 
L 222.027979 293.017077 
L 222.791872 292.927817 
L 223.555765 293.239194 
L 224.319658 292.831688 
L 225.083551 293.292941 
L 225.847444 292.191629 
L 226.611337 292.938431 
L 227.37523 293.066412 
L 228.139123 293.040122 
L 228.903016 292.792568 
L 229.666909 293.112322 
L 230.430802 293.293328 
L 231.194695 292.882823 
L 231.958588 293.137136 
L 232.722481 292.985117 
L 233.486374 293.21663 
L 234.250267 293.063608 
L 235.01416 292.243619 
L 235.778053 293.077407 
L 238.069733 293.219771 
L 238.833626 293.612812 
L 239.597519 292.663785 
L 241.125305 292.437557 
L 241.889198 293.18945 
L 242.653091 292.663098 
L 243.416984 292.810917 
L 244.180877 293.234304 
L 244.94477 293.335825 
L 246.472556 292.536693 
L 247.236449 292.96438 
L 248.000342 292.358942 
L 248.764235 292.334252 
L 249.528128 292.823669 
L 250.292021 292.277336 
L 251.055914 292.309013 
L 251.819807 292.908995 
L 252.583701 292.958116 
L 253.347594 292.68359 
L 254.111487 293.36114 
L 254.87538 292.727677 
L 255.639273 292.310999 
L 256.403166 292.845478 
L 257.930952 292.851011 
L 258.694845 292.473034 
L 259.458738 292.551716 
L 260.222631 292.334962 
L 261.750417 292.625881 
L 262.51431 293.215052 
L 263.278203 292.105943 
L 264.805989 293.205724 
L 265.569882 292.336031 
L 266.333775 293.106603 
L 267.861561 291.84407 
L 268.625455 292.89364 
L 270.153241 292.355673 
L 270.917134 292.552157 
L 271.681027 292.942577 
L 272.44492 292.781259 
L 273.208813 292.472957 
L 273.972706 292.526131 
L 274.736599 292.247592 
L 275.500492 293.201384 
L 276.264385 292.525158 
L 277.028278 292.587596 
L 277.792171 293.305694 
L 278.556064 293.051222 
L 279.319957 292.393479 
L 280.08385 292.919719 
L 280.847743 292.373639 
L 281.611636 292.815652 
L 282.375529 292.426669 
L 283.139422 293.506085 
L 283.903316 292.415075 
L 284.667209 293.213352 
L 285.431102 293.18406 
L 286.194995 292.748075 
L 286.958888 292.959113 
L 287.722781 292.845638 
L 288.486674 292.935483 
L 289.250567 292.815179 
L 290.01446 293.267411 
L 290.778353 292.445999 
L 291.542246 292.348903 
L 292.306139 292.607268 
L 293.070032 293.678352 
L 293.833925 292.546162 
L 295.361711 292.442174 
L 296.125604 293.017276 
L 296.889497 292.338324 
L 297.65339 293.020772 
L 298.417283 293.06113 
L 299.181176 292.636344 
L 300.708963 293.443366 
L 301.472856 292.692763 
L 302.236749 292.581948 
L 303.000642 292.310979 
L 303.764535 293.08658 
L 304.528428 292.297475 
L 305.292321 292.925075 
L 306.056214 292.919971 
L 306.820107 292.785813 
L 307.584 292.148167 
L 308.347893 292.863292 
L 309.111786 292.5801 
L 309.875679 292.557592 
L 310.639572 293.172677 
L 311.403465 292.204326 
L 312.167358 292.68471 
L 312.931251 292.462272 
L 313.695144 292.454016 
L 314.459037 293.125905 
L 315.22293 293.050249 
L 315.986824 292.326699 
L 318.278503 293.191416 
L 319.806289 292.583919 
L 320.570182 292.454601 
L 321.334075 292.655347 
L 323.625754 292.756605 
L 324.389647 292.881123 
L 325.15354 292.889423 
L 326.681326 292.587544 
L 327.445219 292.224343 
L 328.209112 292.301042 
L 328.973005 292.257012 
L 329.736898 293.174441 
L 330.500791 292.105192 
L 331.264684 293.523763 
L 333.556364 292.589577 
L 334.320257 292.391441 
L 335.08415 293.136413 
L 335.848043 293.358925 
L 336.611936 293.150859 
L 337.375829 293.239708 
L 338.139722 293.136978 
L 338.903615 292.772903 
L 339.667508 293.027522 
L 340.431401 293.008784 
L 341.195294 292.669399 
L 341.959187 292.611284 
L 342.72308 292.894873 
L 343.486973 292.507086 
L 344.250866 293.185319 
L 345.014759 292.75838 
L 345.778652 292.92276 
L 346.542545 292.647579 
L 347.306439 293.220133 
L 348.070332 293.140902 
L 348.834225 293.478613 
L 349.598118 292.544506 
L 350.362011 292.452746 
L 351.125904 292.179175 
L 351.889797 293.020481 
L 352.65369 292.795259 
L 353.417583 293.340604 
L 354.181476 292.427298 
L 354.945369 292.844915 
L 355.709262 292.764529 
L 356.473155 292.515754 
L 357.237048 292.568912 
L 358.764834 292.945985 
L 359.528727 292.860635 
L 360.29262 292.661271 
L 361.056513 292.951412 
L 361.820406 292.939186 
L 362.584299 292.809511 
L 363.348193 293.183521 
L 364.112086 293.112068 
L 364.875979 292.41882 
L 366.403765 292.609023 
L 367.167658 293.154777 
L 367.931551 292.504287 
L 368.695444 292.598 
L 369.459337 292.541696 
L 370.22323 292.957662 
L 370.987123 292.931955 
L 371.751016 292.476994 
L 372.514909 293.582484 
L 373.278802 292.83531 
L 374.042695 292.894806 
L 375.570481 292.38232 
L 376.334374 292.755814 
L 377.098267 292.924319 
L 377.86216 292.771997 
L 378.626053 292.763186 
L 379.389947 293.075666 
L 380.15384 293.152118 
L 380.917733 292.586861 
L 382.445519 293.073907 
L 383.973305 292.809421 
L 384.737198 293.002256 
L 386.264984 292.791135 
L 387.028877 292.427432 
L 387.79277 292.901632 
L 388.556663 292.685127 
L 389.320556 292.598609 
L 390.084449 293.300577 
L 390.848342 292.740272 
L 391.612235 293.302667 
L 392.376128 293.201425 
L 393.140021 292.331612 
L 393.903914 292.919411 
L 394.667807 293.287333 
L 395.431701 292.615289 
L 396.195594 293.327352 
L 396.959487 292.576237 
L 397.72338 292.778681 
L 398.487273 292.511753 
L 398.487273 292.511753 
" style="fill:none;stroke:#1f77b4;stroke-linecap:square;stroke-width:1.5;"/>
   </g>
   <g id="line2d_60">
    <path clip-path="url(#p1b40a17c2a)" d="M 73.832727 282.178481 
L 74.59662 283.930502 
L 75.360513 283.156138 
L 76.124406 284.547624 
L 76.888299 284.553888 
L 77.652193 285.976036 
L 78.416086 285.800374 
L 79.179979 288.429951 
L 80.707765 287.390062 
L 81.471658 288.939562 
L 82.235551 289.256472 
L 82.999444 288.916758 
L 83.763337 289.452298 
L 84.52723 289.233679 
L 85.291123 288.772588 
L 86.055016 288.777757 
L 86.818909 290.542203 
L 87.582802 289.939063 
L 88.346695 288.773326 
L 89.110588 289.887872 
L 89.874481 288.983245 
L 90.638374 289.296149 
L 91.402267 289.357758 
L 92.16616 290.681134 
L 92.930053 290.358253 
L 93.693947 289.285818 
L 94.45784 290.460272 
L 95.221733 289.44108 
L 95.985626 290.729269 
L 96.749519 291.159842 
L 97.513412 291.106861 
L 98.277305 290.795283 
L 99.041198 290.020043 
L 99.805091 290.996384 
L 100.568984 290.321337 
L 101.332877 290.892975 
L 102.09677 289.94834 
L 102.860663 290.464753 
L 103.624556 290.334223 
L 104.388449 290.507727 
L 105.152342 291.529108 
L 105.916235 288.648445 
L 106.680128 290.757988 
L 107.444021 291.483217 
L 108.207914 290.545027 
L 108.971807 292.054907 
L 109.735701 290.987425 
L 110.499594 292.540057 
L 111.263487 290.705925 
L 112.02738 290.912075 
L 112.791273 290.613576 
L 113.555166 291.360389 
L 115.082952 291.200744 
L 115.846845 291.349114 
L 116.610738 291.645393 
L 117.374631 290.364475 
L 118.138524 291.329699 
L 118.902417 290.886316 
L 119.66631 291.469514 
L 120.430203 293.703377 
L 121.194096 292.910074 
L 121.957989 290.861637 
L 122.721882 292.947055 
L 123.485775 292.264298 
L 124.249668 292.284013 
L 125.013561 291.580852 
L 125.777455 292.699484 
L 126.541348 293.552068 
L 127.305241 291.998449 
L 128.069134 292.976206 
L 128.833027 292.418627 
L 129.59692 293.218132 
L 130.360813 292.034243 
L 131.888599 292.571715 
L 132.652492 292.936739 
L 133.416385 292.983128 
L 134.180278 291.747942 
L 134.944171 292.687668 
L 135.708064 292.47978 
L 136.471957 292.096368 
L 137.23585 294.981692 
L 137.999743 291.579408 
L 138.763636 293.244263 
L 140.291422 293.168318 
L 141.055316 292.16474 
L 141.819209 292.840108 
L 142.583102 292.581131 
L 143.346995 292.706818 
L 144.110888 292.155684 
L 144.874781 292.762048 
L 145.638674 293.739871 
L 146.402567 293.437922 
L 147.16646 291.633272 
L 147.930353 294.253591 
L 148.694246 292.997108 
L 149.458139 293.386229 
L 150.222032 292.879886 
L 150.985925 291.893454 
L 151.749818 292.573062 
L 152.513711 291.746371 
L 153.277604 292.833149 
L 154.041497 292.668179 
L 154.80539 292.193196 
L 155.569283 292.843487 
L 156.333176 292.746803 
L 157.09707 293.160841 
L 157.860963 294.074171 
L 158.624856 293.927158 
L 159.388749 293.563597 
L 160.152642 293.650703 
L 160.916535 292.444694 
L 161.680428 292.118841 
L 162.444321 293.152256 
L 163.208214 292.380131 
L 164.736 294.169138 
L 165.499893 292.074122 
L 166.263786 292.193085 
L 167.027679 291.566979 
L 167.791572 291.531607 
L 168.555465 292.933928 
L 169.319358 292.19359 
L 170.083251 292.624398 
L 170.847144 292.503221 
L 171.611037 292.257011 
L 172.37493 292.268699 
L 173.138824 291.848565 
L 173.902717 292.734929 
L 174.66661 293.083287 
L 175.430503 293.752315 
L 176.194396 292.697379 
L 176.958289 293.042447 
L 177.722182 292.089765 
L 178.486075 291.382486 
L 179.249968 293.182737 
L 180.013861 292.459134 
L 180.777754 292.519149 
L 181.541647 294.302549 
L 182.30554 292.859472 
L 183.069433 292.448148 
L 183.833326 293.162958 
L 185.361112 291.629112 
L 186.125005 293.18052 
L 187.652791 292.120475 
L 189.944471 292.53395 
L 190.708364 292.893837 
L 191.472257 291.905667 
L 192.23615 293.439372 
L 193.000043 291.597323 
L 194.527829 292.258653 
L 195.291722 292.413737 
L 196.055615 292.428173 
L 196.819508 293.076512 
L 198.347294 291.735672 
L 199.111187 293.535808 
L 199.87508 293.235404 
L 200.638973 293.139049 
L 201.402866 292.419284 
L 202.166759 294.371092 
L 202.930652 292.38076 
L 203.694545 292.785988 
L 204.458439 292.599492 
L 205.222332 292.971914 
L 205.986225 291.924944 
L 206.750118 293.549085 
L 207.514011 292.730854 
L 208.277904 292.243707 
L 209.041797 292.464055 
L 209.80569 293.494185 
L 210.569583 292.438371 
L 211.333476 292.457092 
L 212.097369 293.403877 
L 213.625155 293.483988 
L 214.389048 292.275959 
L 215.152941 292.291256 
L 215.916834 291.891483 
L 216.680727 291.987156 
L 217.44462 292.924523 
L 218.208513 293.011224 
L 218.972406 292.301287 
L 219.736299 292.346616 
L 220.500193 293.208424 
L 221.264086 292.02649 
L 222.027979 293.008029 
L 223.555765 292.139669 
L 224.319658 291.944683 
L 225.847444 292.643214 
L 226.611337 294.214901 
L 227.37523 291.85658 
L 228.139123 294.049661 
L 228.903016 293.65378 
L 229.666909 292.356744 
L 230.430802 292.9139 
L 231.194695 292.213718 
L 231.958588 293.036425 
L 232.722481 293.022517 
L 233.486374 292.208572 
L 234.250267 292.994129 
L 235.778053 292.964847 
L 237.30584 292.492898 
L 238.069733 292.485718 
L 238.833626 292.869119 
L 239.597519 292.322935 
L 240.361412 292.480057 
L 241.125305 292.792903 
L 241.889198 292.269866 
L 243.416984 293.753895 
L 244.180877 292.819481 
L 244.94477 293.364523 
L 245.708663 291.865872 
L 246.472556 292.188834 
L 247.236449 293.690231 
L 248.000342 292.394591 
L 248.764235 291.596725 
L 249.528128 292.680848 
L 250.292021 293.343335 
L 251.055914 292.477673 
L 251.819807 291.808687 
L 252.583701 293.259621 
L 253.347594 292.821265 
L 254.111487 292.037655 
L 254.87538 290.759998 
L 255.639273 292.631816 
L 256.403166 291.892903 
L 257.167059 292.050811 
L 257.930952 292.762396 
L 258.694845 292.242481 
L 259.458738 292.222404 
L 260.222631 291.581109 
L 260.986524 292.387037 
L 261.750417 292.850918 
L 262.51431 291.897615 
L 263.278203 293.373504 
L 264.042096 292.999237 
L 264.805989 291.774886 
L 265.569882 292.316487 
L 266.333775 293.437893 
L 267.097668 293.100477 
L 267.861561 291.990626 
L 268.625455 292.809075 
L 269.389348 293.442965 
L 270.153241 292.692768 
L 270.917134 292.530533 
L 271.681027 293.03748 
L 272.44492 292.408576 
L 273.208813 292.956035 
L 273.972706 292.435997 
L 274.736599 292.102762 
L 275.500492 293.713339 
L 276.264385 292.941008 
L 277.028278 292.975369 
L 277.792171 293.386791 
L 278.556064 293.198281 
L 279.319957 292.336321 
L 280.08385 292.403001 
L 280.847743 292.199355 
L 281.611636 292.583706 
L 282.375529 292.227084 
L 283.139422 292.473026 
L 283.903316 292.311556 
L 284.667209 291.732307 
L 285.431102 293.960855 
L 286.194995 293.042924 
L 286.958888 291.729513 
L 287.722781 293.579608 
L 288.486674 293.524938 
L 290.01446 291.858673 
L 290.778353 292.785772 
L 291.542246 292.908914 
L 292.306139 292.253948 
L 293.070032 291.403383 
L 293.833925 293.953981 
L 295.361711 292.791837 
L 296.125604 293.111026 
L 296.889497 293.1223 
L 297.65339 292.291412 
L 298.417283 292.013755 
L 299.181176 294.102273 
L 299.94507 294.641456 
L 300.708963 292.417197 
L 301.472856 293.751793 
L 302.236749 293.327991 
L 303.000642 292.163648 
L 303.764535 293.233394 
L 304.528428 291.501688 
L 305.292321 292.538219 
L 306.056214 292.304075 
L 306.820107 294.219103 
L 307.584 294.069047 
L 308.347893 292.890129 
L 309.111786 292.164855 
L 310.639572 293.134566 
L 311.403465 292.844677 
L 312.167358 292.976229 
L 312.931251 291.450744 
L 313.695144 292.704675 
L 314.459037 293.141514 
L 315.986824 292.221042 
L 316.750717 293.80981 
L 317.51461 293.566274 
L 319.806289 292.01672 
L 320.570182 293.371907 
L 321.334075 292.814783 
L 322.097968 293.960608 
L 322.861861 293.502555 
L 323.625754 292.895218 
L 324.389647 291.398268 
L 325.15354 292.347117 
L 325.917433 291.858646 
L 326.681326 292.93844 
L 328.209112 292.526911 
L 328.973005 293.015469 
L 329.736898 292.775105 
L 330.500791 293.047411 
L 331.264684 292.678552 
L 332.028578 291.430465 
L 332.792471 294.068615 
L 333.556364 292.623468 
L 334.320257 292.729145 
L 335.848043 292.07644 
L 336.611936 293.224148 
L 338.139722 291.651744 
L 338.903615 292.756252 
L 339.667508 292.685221 
L 341.195294 292.865233 
L 341.959187 293.232158 
L 342.72308 292.445607 
L 343.486973 292.63526 
L 345.014759 292.174355 
L 345.778652 292.940251 
L 347.306439 292.135752 
L 348.070332 292.50147 
L 349.598118 292.651232 
L 350.362011 292.180405 
L 351.125904 293.929659 
L 351.889797 293.208038 
L 352.65369 293.00926 
L 353.417583 290.439697 
L 354.181476 293.211774 
L 354.945369 292.397092 
L 355.709262 292.475392 
L 356.473155 293.116948 
L 357.237048 291.584266 
L 358.000941 293.445826 
L 358.764834 293.401272 
L 359.528727 292.178134 
L 360.29262 294.687669 
L 361.056513 292.798231 
L 361.820406 291.4709 
L 362.584299 292.650622 
L 363.348193 292.271129 
L 364.112086 293.153625 
L 364.875979 291.758356 
L 365.639872 291.883396 
L 366.403765 293.267803 
L 367.167658 292.443163 
L 367.931551 292.991745 
L 368.695444 295.488 
L 369.459337 292.813801 
L 370.22323 291.801636 
L 370.987123 293.50635 
L 371.751016 293.626465 
L 372.514909 292.398423 
L 373.278802 292.070228 
L 374.806588 291.950165 
L 375.570481 292.145911 
L 376.334374 293.345802 
L 377.098267 291.434707 
L 377.86216 293.343315 
L 378.626053 292.253764 
L 379.389947 292.27192 
L 380.15384 291.506827 
L 380.917733 292.850167 
L 381.681626 291.625336 
L 382.445519 292.767029 
L 383.209412 293.126028 
L 383.973305 292.171255 
L 384.737198 292.357835 
L 385.501091 292.936762 
L 386.264984 292.327328 
L 387.028877 293.166079 
L 387.79277 293.611814 
L 388.556663 291.243304 
L 389.320556 293.333314 
L 390.084449 292.90136 
L 390.848342 293.832957 
L 391.612235 293.161435 
L 392.376128 293.891898 
L 393.140021 293.393551 
L 393.903914 293.217994 
L 395.431701 292.253175 
L 396.195594 292.242326 
L 396.959487 293.280776 
L 397.72338 293.849866 
L 398.487273 292.656546 
L 398.487273 292.656546 
" style="fill:none;stroke:#ff7f0e;stroke-linecap:square;stroke-width:1.5;"/>
   </g>
   <g id="patch_3">
    <path d="M 57.6 307.584 
L 57.6 41.472 
" style="fill:none;stroke:#000000;stroke-linecap:square;stroke-linejoin:miter;stroke-width:0.8;"/>
   </g>
   <g id="patch_4">
    <path d="M 414.72 307.584 
L 414.72 41.472 
" style="fill:none;stroke:#000000;stroke-linecap:square;stroke-linejoin:miter;stroke-width:0.8;"/>
   </g>
   <g id="patch_5">
    <path d="M 57.6 307.584 
L 414.72 307.584 
" style="fill:none;stroke:#000000;stroke-linecap:square;stroke-linejoin:miter;stroke-width:0.8;"/>
   </g>
   <g id="patch_6">
    <path d="M 57.6 41.472 
L 414.72 41.472 
" style="fill:none;stroke:#000000;stroke-linecap:square;stroke-linejoin:miter;stroke-width:0.8;"/>
   </g>
   <g id="legend_1">
    <g id="patch_7">
     <path d="M 326.33875 78.82825 
L 407.72 78.82825 
Q 409.72 78.82825 409.72 76.82825 
L 409.72 48.472 
Q 409.72 46.472 407.72 46.472 
L 326.33875 46.472 
Q 324.33875 46.472 324.33875 48.472 
L 324.33875 76.82825 
Q 324.33875 78.82825 326.33875 78.82825 
z
" style="fill:#ffffff;opacity:0.8;stroke:#cccccc;stroke-linejoin:miter;"/>
    </g>
    <g id="line2d_61">
     <path d="M 328.33875 54.570437 
L 348.33875 54.570437 
" style="fill:none;stroke:#1f77b4;stroke-linecap:square;stroke-width:1.5;"/>
    </g>
    <g id="line2d_62"/>
    <g id="text_14">
     <!-- Training -->
     <g transform="translate(356.33875 58.070437)scale(0.1 -0.1)">
      <defs>
       <path d="M -19 4666 
L 3928 4666 
L 3928 4134 
L 2272 4134 
L 2272 0 
L 1638 0 
L 1638 4134 
L -19 4134 
L -19 4666 
z
" id="DejaVuSans-54" transform="scale(0.015625)"/>
       <path d="M 2631 2963 
Q 2534 3019 2420 3045 
Q 2306 3072 2169 3072 
Q 1681 3072 1420 2755 
Q 1159 2438 1159 1844 
L 1159 0 
L 581 0 
L 581 3500 
L 1159 3500 
L 1159 2956 
Q 1341 3275 1631 3429 
Q 1922 3584 2338 3584 
Q 2397 3584 2469 3576 
Q 2541 3569 2628 3553 
L 2631 2963 
z
" id="DejaVuSans-72" transform="scale(0.015625)"/>
       <path d="M 2194 1759 
Q 1497 1759 1228 1600 
Q 959 1441 959 1056 
Q 959 750 1161 570 
Q 1363 391 1709 391 
Q 2188 391 2477 730 
Q 2766 1069 2766 1631 
L 2766 1759 
L 2194 1759 
z
M 3341 1997 
L 3341 0 
L 2766 0 
L 2766 531 
Q 2569 213 2275 61 
Q 1981 -91 1556 -91 
Q 1019 -91 701 211 
Q 384 513 384 1019 
Q 384 1609 779 1909 
Q 1175 2209 1959 2209 
L 2766 2209 
L 2766 2266 
Q 2766 2663 2505 2880 
Q 2244 3097 1772 3097 
Q 1472 3097 1187 3025 
Q 903 2953 641 2809 
L 641 3341 
Q 956 3463 1253 3523 
Q 1550 3584 1831 3584 
Q 2591 3584 2966 3190 
Q 3341 2797 3341 1997 
z
" id="DejaVuSans-61" transform="scale(0.015625)"/>
       <path d="M 603 3500 
L 1178 3500 
L 1178 0 
L 603 0 
L 603 3500 
z
M 603 4863 
L 1178 4863 
L 1178 4134 
L 603 4134 
L 603 4863 
z
" id="DejaVuSans-69" transform="scale(0.015625)"/>
       <path d="M 3513 2113 
L 3513 0 
L 2938 0 
L 2938 2094 
Q 2938 2591 2744 2837 
Q 2550 3084 2163 3084 
Q 1697 3084 1428 2787 
Q 1159 2491 1159 1978 
L 1159 0 
L 581 0 
L 581 3500 
L 1159 3500 
L 1159 2956 
Q 1366 3272 1645 3428 
Q 1925 3584 2291 3584 
Q 2894 3584 3203 3211 
Q 3513 2838 3513 2113 
z
" id="DejaVuSans-6e" transform="scale(0.015625)"/>
       <path d="M 2906 1791 
Q 2906 2416 2648 2759 
Q 2391 3103 1925 3103 
Q 1463 3103 1205 2759 
Q 947 2416 947 1791 
Q 947 1169 1205 825 
Q 1463 481 1925 481 
Q 2391 481 2648 825 
Q 2906 1169 2906 1791 
z
M 3481 434 
Q 3481 -459 3084 -895 
Q 2688 -1331 1869 -1331 
Q 1566 -1331 1297 -1286 
Q 1028 -1241 775 -1147 
L 775 -588 
Q 1028 -725 1275 -790 
Q 1522 -856 1778 -856 
Q 2344 -856 2625 -561 
Q 2906 -266 2906 331 
L 2906 616 
Q 2728 306 2450 153 
Q 2172 0 1784 0 
Q 1141 0 747 490 
Q 353 981 353 1791 
Q 353 2603 747 3093 
Q 1141 3584 1784 3584 
Q 2172 3584 2450 3431 
Q 2728 3278 2906 2969 
L 2906 3500 
L 3481 3500 
L 3481 434 
z
" id="DejaVuSans-67" transform="scale(0.015625)"/>
      </defs>
      <use xlink:href="#DejaVuSans-54"/>
      <use x="46.333984" xlink:href="#DejaVuSans-72"/>
      <use x="87.447266" xlink:href="#DejaVuSans-61"/>
      <use x="148.726562" xlink:href="#DejaVuSans-69"/>
      <use x="176.509766" xlink:href="#DejaVuSans-6e"/>
      <use x="239.888672" xlink:href="#DejaVuSans-69"/>
      <use x="267.671875" xlink:href="#DejaVuSans-6e"/>
      <use x="331.050781" xlink:href="#DejaVuSans-67"/>
     </g>
    </g>
    <g id="line2d_63">
     <path d="M 328.33875 69.248562 
L 348.33875 69.248562 
" style="fill:none;stroke:#ff7f0e;stroke-linecap:square;stroke-width:1.5;"/>
    </g>
    <g id="line2d_64"/>
    <g id="text_15">
     <!-- Validation -->
     <g transform="translate(356.33875 72.748562)scale(0.1 -0.1)">
      <defs>
       <path d="M 1831 0 
L 50 4666 
L 709 4666 
L 2188 738 
L 3669 4666 
L 4325 4666 
L 2547 0 
L 1831 0 
z
" id="DejaVuSans-56" transform="scale(0.015625)"/>
       <path d="M 2906 2969 
L 2906 4863 
L 3481 4863 
L 3481 0 
L 2906 0 
L 2906 525 
Q 2725 213 2448 61 
Q 2172 -91 1784 -91 
Q 1150 -91 751 415 
Q 353 922 353 1747 
Q 353 2572 751 3078 
Q 1150 3584 1784 3584 
Q 2172 3584 2448 3432 
Q 2725 3281 2906 2969 
z
M 947 1747 
Q 947 1113 1208 752 
Q 1469 391 1925 391 
Q 2381 391 2643 752 
Q 2906 1113 2906 1747 
Q 2906 2381 2643 2742 
Q 2381 3103 1925 3103 
Q 1469 3103 1208 2742 
Q 947 2381 947 1747 
z
" id="DejaVuSans-64" transform="scale(0.015625)"/>
       <path d="M 1172 4494 
L 1172 3500 
L 2356 3500 
L 2356 3053 
L 1172 3053 
L 1172 1153 
Q 1172 725 1289 603 
Q 1406 481 1766 481 
L 2356 481 
L 2356 0 
L 1766 0 
Q 1100 0 847 248 
Q 594 497 594 1153 
L 594 3053 
L 172 3053 
L 172 3500 
L 594 3500 
L 594 4494 
L 1172 4494 
z
" id="DejaVuSans-74" transform="scale(0.015625)"/>
      </defs>
      <use xlink:href="#DejaVuSans-56"/>
      <use x="60.658203" xlink:href="#DejaVuSans-61"/>
      <use x="121.9375" xlink:href="#DejaVuSans-6c"/>
      <use x="149.720703" xlink:href="#DejaVuSans-69"/>
      <use x="177.503906" xlink:href="#DejaVuSans-64"/>
      <use x="240.980469" xlink:href="#DejaVuSans-61"/>
      <use x="302.259766" xlink:href="#DejaVuSans-74"/>
      <use x="341.46875" xlink:href="#DejaVuSans-69"/>
      <use x="369.251953" xlink:href="#DejaVuSans-6f"/>
      <use x="430.433594" xlink:href="#DejaVuSans-6e"/>
     </g>
    </g>
   </g>
  </g>
 </g>
 <defs>
  <clipPath id="p1b40a17c2a">
   <rect height="266.112" width="357.12" x="57.6" y="41.472"/>
  </clipPath>
 </defs>
</svg>
